<svg width="20" height="18" viewBox="0 0 20 18" fill="none" xmlns="http://www.w3.org/2000/svg">
<path d="M3 7.71429C4.10313 7.71429 5 6.56116 5 5.14286C5 3.72455 4.10313 2.57143 3 2.57143C1.89688 2.57143 1 3.72455 1 5.14286C1 6.56116 1.89688 7.71429 3 7.71429ZM17 7.71429C18.1031 7.71429 19 6.56116 19 5.14286C19 3.72455 18.1031 2.57143 17 2.57143C15.8969 2.57143 15 3.72455 15 5.14286C15 6.56116 15.8969 7.71429 17 7.71429ZM18 9H16C15.45 9 14.9531 9.28527 14.5906 9.74732C15.85 10.6353 16.7438 12.2384 16.9375 14.1429H19C19.5531 14.1429 20 13.5683 20 12.8571V11.5714C20 10.1531 19.1031 9 18 9ZM10 9C11.9344 9 13.5 6.98705 13.5 4.5C13.5 2.01295 11.9344 0 10 0C8.06563 0 6.5 2.01295 6.5 4.5C6.5 6.98705 8.06563 9 10 9ZM12.4 10.2857H12.1406C11.4906 10.6875 10.7688 10.9286 10 10.9286C9.23125 10.9286 8.5125 10.6875 7.85938 10.2857H7.6C5.6125 10.2857 4 12.3589 4 14.9143V16.0714C4 17.1362 4.67188 18 5.5 18H14.5C15.3281 18 16 17.1362 16 16.0714V14.9143C16 12.3589 14.3875 10.2857 12.4 10.2857ZM5.40938 9.74732C5.04688 9.28527 4.55 9 4 9H2C0.896875 9 0 10.1531 0 11.5714V12.8571C0 13.5683 0.446875 14.1429 1 14.1429H3.05938C3.25625 12.2384 4.15 10.6353 5.40938 9.74732Z" fill="#564FCC"/>
</svg>
