<svg width="14" height="14" viewBox="0 0 14 14" fill="none" xmlns="http://www.w3.org/2000/svg">
<path d="M1 7.75H5.5C5.69891 7.75 5.88968 7.67098 6.03033 7.53033C6.17098 7.38968 6.25 7.19891 6.25 7V1C6.25 0.801088 6.17098 0.610322 6.03033 0.46967C5.88968 0.329018 5.69891 0.25 5.5 0.25H1C0.801088 0.25 0.610322 0.329018 0.46967 0.46967C0.329018 0.610322 0.25 0.801088 0.25 1V7C0.25 7.19891 0.329018 7.38968 0.46967 7.53033C0.610322 7.67098 0.801088 7.75 1 7.75ZM0.25 13C0.25 13.1989 0.329018 13.3897 0.46967 13.5303C0.610322 13.671 0.801088 13.75 1 13.75H5.5C5.69891 13.75 5.88968 13.671 6.03033 13.5303C6.17098 13.3897 6.25 13.1989 6.25 13V10C6.25 9.80109 6.17098 9.61032 6.03033 9.46967C5.88968 9.32902 5.69891 9.25 5.5 9.25H1C0.801088 9.25 0.610322 9.32902 0.46967 9.46967C0.329018 9.61032 0.25 9.80109 0.25 10V13ZM7.75 13C7.75 13.1989 7.82902 13.3897 7.96967 13.5303C8.11032 13.671 8.30109 13.75 8.5 13.75H13C13.1989 13.75 13.3897 13.671 13.5303 13.5303C13.671 13.3897 13.75 13.1989 13.75 13V7.75C13.75 7.55109 13.671 7.36032 13.5303 7.21967C13.3897 7.07902 13.1989 7 13 7H8.5C8.30109 7 8.11032 7.07902 7.96967 7.21967C7.82902 7.36032 7.75 7.55109 7.75 7.75V13ZM8.5 5.5H13C13.1989 5.5 13.3897 5.42098 13.5303 5.28033C13.671 5.13968 13.75 4.94891 13.75 4.75V1C13.75 0.801088 13.671 0.610322 13.5303 0.46967C13.3897 0.329018 13.1989 0.25 13 0.25H8.5C8.30109 0.25 8.11032 0.329018 7.96967 0.46967C7.82902 0.610322 7.75 0.801088 7.75 1V4.75C7.75 4.94891 7.82902 5.13968 7.96967 5.28033C8.11032 5.42098 8.30109 5.5 8.5 5.5Z" fill="#ECECEC"/>
</svg>
