<svg width="18" height="18" viewBox="0 0 18 18" fill="none" xmlns="http://www.w3.org/2000/svg">
<path d="M18 8.983C18.0092 13.9417 13.9652 17.9965 9.00652 18C6.86485 18.0015 4.89763 17.255 3.3517 16.0073C2.94971 15.6828 2.91966 15.0804 3.28496 14.7151L3.69384 14.3062C4.00627 13.9938 4.50504 13.9596 4.85118 14.2342C5.99015 15.138 7.43156 15.6774 8.99999 15.6774C12.6909 15.6774 15.6774 12.6904 15.6774 9.00002C15.6774 5.3091 12.6903 2.32258 8.99999 2.32258C7.22852 2.32258 5.61959 3.01098 4.42495 4.13464L6.26683 5.97652C6.63263 6.34233 6.37355 6.96775 5.85627 6.96775H0.580645C0.259947 6.96775 0 6.70781 0 6.38711V1.11147C0 0.594183 0.625427 0.335105 0.991233 0.700876L2.78296 2.49261C4.39871 0.948486 6.58857 0 8.99999 0C13.9649 0 17.9908 4.02025 18 8.983ZM11.4346 11.8421L11.7911 11.3838C12.0864 11.004 12.018 10.4568 11.6383 10.1615L10.1613 9.01268V5.22582C10.1613 4.74479 9.77134 4.35485 9.29031 4.35485H8.70967C8.22864 4.35485 7.8387 4.74479 7.8387 5.22582V10.1486L10.2124 11.9949C10.5921 12.2902 11.1393 12.2218 11.4346 11.8421Z" fill="#564FCC"/>
</svg>
