<svg width="14" height="18" viewBox="0 0 14 18" fill="none" xmlns="http://www.w3.org/2000/svg">
<path d="M12.25 2.25H9.33333C9.33333 1.00898 8.28698 0 7 0C5.71302 0 4.66667 1.00898 4.66667 2.25H1.75C0.783854 2.25 0 3.00586 0 3.9375V16.3125C0 17.2441 0.783854 18 1.75 18H12.25C13.2161 18 14 17.2441 14 16.3125V3.9375C14 3.00586 13.2161 2.25 12.25 2.25ZM3.5 14.9063C3.0151 14.9063 2.625 14.5301 2.625 14.0625C2.625 13.5949 3.0151 13.2188 3.5 13.2188C3.9849 13.2188 4.375 13.5949 4.375 14.0625C4.375 14.5301 3.9849 14.9063 3.5 14.9063ZM3.5 11.5312C3.0151 11.5312 2.625 11.1551 2.625 10.6875C2.625 10.2199 3.0151 9.84375 3.5 9.84375C3.9849 9.84375 4.375 10.2199 4.375 10.6875C4.375 11.1551 3.9849 11.5312 3.5 11.5312ZM3.5 8.15625C3.0151 8.15625 2.625 7.78008 2.625 7.3125C2.625 6.84492 3.0151 6.46875 3.5 6.46875C3.9849 6.46875 4.375 6.84492 4.375 7.3125C4.375 7.78008 3.9849 8.15625 3.5 8.15625ZM7 1.40625C7.4849 1.40625 7.875 1.78242 7.875 2.25C7.875 2.71758 7.4849 3.09375 7 3.09375C6.5151 3.09375 6.125 2.71758 6.125 2.25C6.125 1.78242 6.5151 1.40625 7 1.40625ZM11.6667 14.3438C11.6667 14.4984 11.5354 14.625 11.375 14.625H6.125C5.96458 14.625 5.83333 14.4984 5.83333 14.3438V13.7813C5.83333 13.6266 5.96458 13.5 6.125 13.5H11.375C11.5354 13.5 11.6667 13.6266 11.6667 13.7813V14.3438ZM11.6667 10.9688C11.6667 11.1234 11.5354 11.25 11.375 11.25H6.125C5.96458 11.25 5.83333 11.1234 5.83333 10.9688V10.4062C5.83333 10.2516 5.96458 10.125 6.125 10.125H11.375C11.5354 10.125 11.6667 10.2516 11.6667 10.4062V10.9688ZM11.6667 7.59375C11.6667 7.74844 11.5354 7.875 11.375 7.875H6.125C5.96458 7.875 5.83333 7.74844 5.83333 7.59375V7.03125C5.83333 6.87656 5.96458 6.75 6.125 6.75H11.375C11.5354 6.75 11.6667 6.87656 11.6667 7.03125V7.59375Z" fill="#564FCC"/>
</svg>
