<svg width="20" height="20" viewBox="0 0 20 20" fill="none" xmlns="http://www.w3.org/2000/svg">
<path d="M0 10C0 9.07953 0.746192 8.33333 1.66667 8.33333H13.3333C14.2538 8.33333 15 9.07953 15 10C15 10.9205 14.2538 11.6667 13.3333 11.6667H1.66667C0.746192 11.6667 0 10.9205 0 10ZM0 1.66667C0 0.746192 0.746192 0 1.66667 0H18.3333C19.2538 0 20 0.746192 20 1.66667C20 2.58714 19.2538 3.33333 18.3333 3.33333H1.66667C0.746193 3.33333 0 2.58714 0 1.66667ZM0 18.3333C0 19.2538 0.746192 20 1.66667 20H7.37708C8.29756 20 9.04375 19.2538 9.04375 18.3333C9.04375 17.4129 8.29756 16.6667 7.37708 16.6667H1.66667C0.746191 16.6667 0 17.4129 0 18.3333Z" fill="#564FCC"/>
</svg>
