<svg width="37" height="34" viewBox="0 0 37 34" fill="none" xmlns="http://www.w3.org/2000/svg">
<circle cx="18" cy="17" r="9.5" stroke="#A6A2DB" stroke-opacity="0.25" stroke-dasharray="2 2"/>
<path d="M14.3457 14.3417L15.5055 12.4101L15.9342 12.6675L16.5141 11.7017C16.6573 11.4632 16.8469 11.2863 17.0593 11.1665L16.8136 10.731C17.4213 10.3882 18.1788 10.3882 18.7866 10.731L18.5409 11.1665C18.7532 11.2863 18.9428 11.4632 19.0861 11.7017L19.666 12.6675L20.0946 12.4101L21.2544 14.3417L20.8258 14.5991L21.9856 16.5306L22.4142 16.2732L23.574 18.2048L23.1454 18.4622L23.7253 19.428C23.8728 19.6737 23.9395 19.931 23.9423 20.18L24.4423 20.1744C24.4503 20.8898 24.0658 21.5692 23.4482 21.9306L23.1957 21.4991C22.9808 21.6249 22.7259 21.7002 22.4393 21.7002H21.2795V22.2002H18.9599V21.7002H16.6403V22.2002H14.3207V21.7002H13.1609C12.8743 21.7002 12.6194 21.6249 12.4045 21.4991L12.1519 21.9306C11.5344 21.5692 11.1498 20.8898 11.1579 20.1744L11.6579 20.18C11.6607 19.931 11.7273 19.6737 11.8749 19.428L12.4548 18.4622L12.0261 18.2048L13.1859 16.2732L13.6146 16.5306L14.7744 14.5991L14.3457 14.3417Z" stroke="#4E48A0" stroke-dasharray="2 2"/>
<circle cx="17.1269" cy="16.6464" r="15.1078" stroke="#4E48A0" stroke-opacity="0.5" stroke-dasharray="3 3"/>
<path fill-rule="evenodd" clip-rule="evenodd" d="M30.2981 24.8589C27.0589 24.7957 23.2485 23.7268 19.5659 21.6485C11.904 17.3243 7.69709 10.2675 10.1695 5.88664C11.1587 4.13388 13.0673 3.07505 15.4919 2.71239C11.7296 2.68432 8.63915 3.62661 7.4637 5.70936C4.92062 10.2154 9.93318 17.5268 17.814 21.9745C22.3027 24.5078 26.7937 25.3961 30.2981 24.8589Z" fill="#3E3983"/>
<path fill-rule="evenodd" clip-rule="evenodd" d="M31.0139 19.4492C31.0311 18.4056 30.808 17.4245 30.3187 16.5486C27.8654 12.157 19.6502 12.0752 11.9695 16.3659C7.40935 18.9133 4.06287 22.4292 2.60972 25.7848C2.90315 22.019 5.82506 17.8592 11.4636 14.7094C19.3638 10.2961 28.4403 9.69229 30.9636 14.2094C31.7138 15.5523 31.6462 17.4206 31.0139 19.4492Z" fill="#3E3983"/>
<path fill-rule="evenodd" clip-rule="evenodd" d="M5.25728 22.8899C7.01148 25.7799 9.65287 27.5335 12.0616 27.5367C16.7443 27.5428 20.5493 20.6793 20.5605 12.2064C20.5655 8.42219 19.8128 4.95697 18.5611 2.28013C20.4817 5.02365 21.6301 9.39099 21.6233 14.4959C21.6119 23.2108 17.6981 30.2705 12.8816 30.2642C8.939 30.259 6.13764 28.3593 5.25728 22.8899Z" fill="#4E48A0"/>
<path fill-rule="evenodd" clip-rule="evenodd" d="M30.6408 20.653C31.2123 18.7752 31.1465 16.9915 30.3185 15.5093C27.8653 11.1177 19.65 11.0359 11.9693 15.3265C7.80634 17.6521 4.65483 20.7848 3.03188 23.8657C4.01465 20.3392 7.39901 16.568 12.6029 13.661C20.5031 9.24771 28.9531 9.33185 31.4764 13.8489C32.4465 15.5855 31.9614 18.0849 30.6408 20.653Z" fill="#4E48A0"/>
<path fill-rule="evenodd" clip-rule="evenodd" d="M28.9198 24.8588C25.6806 24.7956 21.8702 23.7268 18.1876 21.6485C10.5257 17.3243 6.31879 10.2674 8.79122 5.88661C9.73901 4.20725 11.5308 3.16492 13.8117 2.76159C10.7946 2.91741 8.38792 3.87654 7.3265 5.75724C4.78343 10.2632 8.55488 17.5268 16.4357 21.9745C20.9244 24.5078 25.4154 25.3961 28.9198 24.8588Z" fill="#5F59B8"/>
<path fill-rule="evenodd" clip-rule="evenodd" d="M6.3276 26.434C7.98874 28.0477 9.95687 28.9707 11.7984 28.9731C16.8288 28.9797 20.9161 21.853 20.9277 13.055C20.9339 8.31229 19.7545 4.05207 17.8779 1.13134C20.4072 3.91738 22.0784 8.72782 22.0709 14.4219C22.059 23.4713 17.8549 30.8016 12.6808 30.7948C10.2263 30.7916 7.99442 29.1377 6.3276 26.434Z" fill="#7771D4"/>
</svg>
