<svg width="15" height="15" viewBox="0 0 15 15" fill="none" xmlns="http://www.w3.org/2000/svg">
<path d="M14.2865 11.819L10.1954 7.72792L14.2865 3.6368C14.7886 3.13479 14.7886 2.32054 14.2865 1.81853L13.3774 0.909392C12.8754 0.407378 12.0611 0.407378 11.5591 0.909392L7.46802 5.00051L3.3769 0.909392C2.87489 0.407378 2.06064 0.407378 1.55863 0.909392L0.649488 1.81853C0.147474 2.32054 0.147474 3.13479 0.649488 3.6368L4.74061 7.72792L0.649488 11.819C0.147474 12.3211 0.147474 13.1353 0.649488 13.6373L1.55862 14.5465C2.06064 15.0485 2.87489 15.0485 3.3769 14.5465L7.46802 10.4553L11.5591 14.5465C12.0611 15.0485 12.8754 15.0485 13.3774 14.5465L14.2865 13.6373C14.7886 13.1353 14.7886 12.3211 14.2865 11.819Z" fill="#098707"/>
</svg>
