<svg width="16" height="16" viewBox="0 0 16 16" fill="none" xmlns="http://www.w3.org/2000/svg">
<path d="M16 8C16 12.4183 12.4183 16 8 16C3.58171 16 0 12.4183 0 8C0 3.58171 3.58171 0 8 0C12.4183 0 16 3.58171 16 8ZM7.07464 12.2359L13.0101 6.30045C13.2117 6.0989 13.2117 5.7721 13.0101 5.57055L12.2802 4.84064C12.0787 4.63906 11.7519 4.63906 11.5503 4.84064L6.70968 9.68123L4.44971 7.42126C4.24816 7.21971 3.92135 7.21971 3.71977 7.42126L2.98987 8.15116C2.78832 8.35271 2.78832 8.67952 2.98987 8.88106L6.34471 12.2359C6.54629 12.4375 6.87306 12.4375 7.07464 12.2359Z" fill="#098707"/>
</svg>
