<svg width="18" height="15" viewBox="0 0 18 15" fill="none" xmlns="http://www.w3.org/2000/svg">
<path d="M6.3 7.5C7.01201 7.5 7.70804 7.28007 8.30005 6.86801C8.89207 6.45596 9.35349 5.87029 9.62597 5.18506C9.89844 4.49984 9.96973 3.74584 9.83083 3.01841C9.69192 2.29098 9.34905 1.6228 8.84558 1.09835C8.34212 0.573904 7.70066 0.216751 7.00232 0.0720569C6.30399 -0.0726377 5.58015 0.0016248 4.92234 0.285453C4.26453 0.569282 3.70228 1.04993 3.30671 1.66661C2.91114 2.2833 2.7 3.00832 2.7 3.75C2.7 4.74456 3.07928 5.69839 3.75442 6.40165C4.42955 7.10491 5.34522 7.5 6.3 7.5ZM9 9.375C9.00203 9.06185 9.08042 8.75438 9.22781 8.48145C9.09281 8.4668 8.96062 8.4375 8.82 8.4375H8.35031C7.70744 8.74632 7.00793 8.90624 6.3 8.90624C5.59207 8.90624 4.89255 8.74632 4.24969 8.4375H3.78C2.77755 8.43773 1.81622 8.85265 1.10738 9.59102C0.398544 10.3294 0.000223686 11.3308 0 12.375L0 13.5938C0 13.9667 0.142232 14.3244 0.395406 14.5881C0.64858 14.8518 0.991958 15 1.35 15H9.25031C9.08855 14.7161 9.00216 14.3926 9 14.0625V9.375ZM17.1 8.4375H16.2V6.09375C16.2 5.47215 15.9629 4.87601 15.541 4.43647C15.119 3.99693 14.5467 3.75 13.95 3.75C13.3533 3.75 12.781 3.99693 12.359 4.43647C11.9371 4.87601 11.7 5.47215 11.7 6.09375V8.4375H10.8C10.5613 8.4375 10.3324 8.53627 10.1636 8.71209C9.99482 8.8879 9.9 9.12636 9.9 9.375V14.0625C9.9 14.3111 9.99482 14.5496 10.1636 14.7254C10.3324 14.9012 10.5613 15 10.8 15H17.1C17.3387 15 17.5676 14.9012 17.7364 14.7254C17.9052 14.5496 18 14.3111 18 14.0625V9.375C18 9.12636 17.9052 8.8879 17.7364 8.71209C17.5676 8.53627 17.3387 8.4375 17.1 8.4375ZM13.95 12.6563C13.772 12.6563 13.598 12.6013 13.45 12.4983C13.302 12.3952 13.1866 12.2488 13.1185 12.0775C13.0504 11.9062 13.0326 11.7177 13.0673 11.5359C13.102 11.354 13.1877 11.1869 13.3136 11.0558C13.4395 10.9247 13.5998 10.8354 13.7744 10.7993C13.949 10.7631 14.13 10.7817 14.2944 10.8526C14.4589 10.9236 14.5994 11.0437 14.6983 11.1979C14.7972 11.3521 14.85 11.5333 14.85 11.7188C14.85 11.9674 14.7552 12.2058 14.5864 12.3817C14.4176 12.5575 14.1887 12.6563 13.95 12.6563ZM14.85 8.4375H13.05V6.09375C13.05 5.84511 13.1448 5.60665 13.3136 5.43084C13.4824 5.25502 13.7113 5.15625 13.95 5.15625C14.1887 5.15625 14.4176 5.25502 14.5864 5.43084C14.7552 5.60665 14.85 5.84511 14.85 6.09375V8.4375Z" fill="#7872D6"/>
</svg>
