<svg width="22" height="22" viewBox="0 0 22 22" fill="none" xmlns="http://www.w3.org/2000/svg">
<path d="M4.91162 14.7578C7.2832 14.9194 7.79004 14.8608 7.79004 15.3408C7.79004 16.3174 4.58936 16.3203 4.58936 15.415C4.58984 15.1665 4.75 14.9561 4.91162 14.7578ZM6.27637 9.0625C4.69971 9.0625 4.62842 11.2339 6.23975 11.2339C7.82715 11.2339 7.78809 9.0625 6.27637 9.0625ZM21.875 2.34375V19.5312C21.875 20.1529 21.6281 20.749 21.1885 21.1885C20.749 21.6281 20.1529 21.875 19.5312 21.875H2.34375C1.72215 21.875 1.12601 21.6281 0.686468 21.1885C0.24693 20.749 0 20.1529 0 19.5312L0 2.34375C0 1.72215 0.24693 1.12601 0.686468 0.686469C1.12601 0.24693 1.72215 0 2.34375 0H19.5312C20.1529 0 20.749 0.24693 21.1885 0.686469C21.6281 1.12601 21.875 1.72215 21.875 2.34375ZM10.791 5.72803C10.791 6.43555 11.2002 6.84521 11.9072 6.84521C12.627 6.84521 13.0366 6.43555 13.0366 5.72803C13.0366 5.02051 12.6279 4.63867 11.9082 4.63867C11.2012 4.63867 10.791 5.02148 10.791 5.72803ZM9.72559 7.95898H7.30615C6.08545 7.63916 3.32373 7.72217 3.32373 10.2417C3.32373 11.1597 3.78271 11.8042 4.39062 12.1025C3.62451 12.8042 3.26172 13.1348 3.26172 13.6035C3.26172 13.939 3.39795 14.249 3.80762 14.4219C3.37305 14.832 3.12402 15.1289 3.12402 15.6875C3.125 16.6675 3.98096 17.2363 6.22656 17.2363C8.38574 17.2363 9.63818 16.4302 9.63818 15.0034C9.63818 13.2129 8.25977 13.2788 5.01074 13.0806L5.41992 12.4248C6.25 12.6562 9.04248 12.729 9.04248 10.353C9.04248 9.78223 8.80664 9.38525 8.5835 9.09961L9.7251 9.0127L9.72559 7.95898ZM13.8437 13.3223L13.209 13.2354C13.0225 13.2104 13.0103 13.1865 13.0103 12.9868V7.83789H10.4419L10.3057 8.84229C11.0747 9.11328 11.1357 9.07959 11.1357 9.33887V12.9883C11.1357 13.2627 11.1206 13.2119 10.3057 13.3237V14.3032H13.8418L13.8437 13.3223ZM18.75 13.8184L18.4146 12.7261C16.416 13.4766 16.5664 12.1201 16.5664 11.9092V8.94434H18.4146V7.70361H16.6655C16.5254 7.70361 16.5679 7.82666 16.5679 5.81738H15.3872C15.251 7.16992 14.8169 7.71582 13.7271 7.83984V8.94434C14.7266 8.94434 14.6948 8.90283 14.6948 9.06836V12.3188C14.6948 13.7212 15.2529 14.3164 16.7295 14.3164C17.4351 14.3164 18.2163 14.0806 18.75 13.8184Z" fill="#F3F5F4"/>
</svg>
