<svg width="50" height="47" viewBox="0 0 50 47" fill="none" xmlns="http://www.w3.org/2000/svg">
<path d="M38.3037 20.8168C38.466 21.5216 38.577 22.2466 38.6324 22.9877L38.1338 23.025C38.16 23.3752 38.1733 23.7292 38.1733 24.0866C38.1733 24.4439 38.16 24.7979 38.1338 25.1482L38.6324 25.1855C38.577 25.9265 38.466 26.6516 38.3037 27.3563L37.8165 27.2441C37.6561 27.9404 37.4439 28.616 37.1843 29.2665L37.6487 29.4518C37.3752 30.1372 37.0508 30.7956 36.6804 31.4222L36.25 31.1678C35.8885 31.7793 35.4817 32.3593 35.0344 32.903L35.4204 33.2207C34.9538 33.7878 34.4445 34.3168 33.8976 34.8025L33.5656 34.4286C33.0373 34.8978 32.4729 35.3249 31.8773 35.705L32.1462 36.1265C31.5303 36.5194 30.8821 36.8641 30.2065 37.1552L30.0086 36.696C29.3651 36.9733 28.696 37.2001 28.0059 37.3717L28.1265 37.8569C27.4238 38.0316 26.7002 38.1512 25.9601 38.211L25.9199 37.7126C25.5708 37.7408 25.2178 37.7551 24.8614 37.7551C24.5051 37.7551 24.1521 37.7408 23.803 37.7126L23.7628 38.211C23.0227 38.1512 22.299 38.0316 21.5964 37.8569L21.717 37.3717C21.0269 37.2001 20.3578 36.9733 19.7143 36.696L19.5164 37.1552C18.8408 36.8641 18.1926 36.5194 17.5767 36.1265L17.8456 35.705C17.25 35.3249 16.6855 34.8978 16.1573 34.4286L15.8252 34.8025C15.2784 34.3168 14.7691 33.7878 14.3024 33.2207L14.6885 32.903C14.2412 32.3593 13.8344 31.7793 13.4729 31.1678L13.0425 31.4222C12.6721 30.7956 12.3477 30.1372 12.0742 29.4518L12.5386 29.2665C12.2789 28.616 12.0667 27.9404 11.9064 27.2441L11.4192 27.3563C11.2569 26.6516 11.1459 25.9265 11.0905 25.1855L11.5891 25.1482C11.5629 24.7979 11.5496 24.4439 11.5496 24.0866C11.5496 23.7292 11.5629 23.3752 11.5891 23.025L11.0905 22.9877C11.1459 22.2466 11.2569 21.5216 11.4192 20.8168L11.9064 20.929C12.0667 20.2328 12.2789 19.5571 12.5386 18.9067L12.0742 18.7213C12.3477 18.036 12.6721 17.3775 13.0425 16.7509L13.4729 17.0053C13.8344 16.3938 14.2412 15.8138 14.6885 15.2702L14.3024 14.9525C14.7691 14.3854 15.2784 13.8564 15.8252 13.3707L16.1573 13.7445C16.6855 13.2754 17.25 12.8482 17.8456 12.4682L17.5767 12.0467C18.1926 11.6537 18.8408 11.3091 19.5164 11.018L19.7143 11.4771C20.3578 11.1998 21.0269 10.973 21.717 10.8014L21.5964 10.3162C22.299 10.1415 23.0227 10.0219 23.7628 9.96217L23.803 10.4605C24.1521 10.4324 24.5051 10.418 24.8614 10.418C25.2178 10.418 25.5708 10.4324 25.9199 10.4605L25.9601 9.96217C26.7002 10.0219 27.4239 10.1415 28.1265 10.3162L28.0059 10.8014C28.696 10.973 29.3651 11.1998 30.0086 11.4771L30.2065 11.018C30.8821 11.3091 31.5303 11.6537 32.1462 12.0467L31.8773 12.4682C32.4729 12.8482 33.0373 13.2754 33.5656 13.7445L33.8976 13.3707C34.4445 13.8564 34.9538 14.3854 35.4204 14.9525L35.0344 15.2702C35.4817 15.8138 35.8885 16.3938 36.25 17.0053L36.6804 16.7509C37.0508 17.3775 37.3752 18.036 37.6487 18.7213L37.1843 18.9067C37.4439 19.5571 37.6561 20.2328 37.8165 20.929L38.3037 20.8168Z" stroke="#F3F5F4" stroke-dasharray="2 2"/>
<path d="M21.3966 17.6165L22.3716 15.9507L22.8031 16.2033L23.2907 15.3704C23.433 15.1271 23.6233 14.9468 23.837 14.8247L23.5889 14.3906C24.2014 14.0406 24.969 14.0406 25.5815 14.3906L25.3334 14.8247C25.5471 14.9468 25.7374 15.1271 25.8798 15.3704L26.3673 16.2033L26.7988 15.9507L27.7738 17.6165L27.3423 17.8691L28.3173 19.5349L28.7489 19.2823L29.7239 20.9481L29.2924 21.2007L30.2674 22.8665L30.6989 22.6139L31.674 24.2797L31.2424 24.5322L32.2175 26.198L32.649 25.9455L33.624 27.6113L33.1925 27.8638L33.68 28.6967C33.8239 28.9425 33.8878 29.199 33.8885 29.4469L34.3885 29.4455C34.3906 30.1571 34.0048 30.83 33.3896 31.1877L33.1382 30.7554C32.9239 30.88 32.6703 30.9545 32.3855 30.9545H31.4105V31.4545H29.4604V30.9545H27.5103V31.4545H25.5602V30.9545H23.6102V31.4545H21.6601V30.9545H19.71V31.4545H17.76V30.9545H16.7849C16.5002 30.9545 16.2465 30.88 16.0322 30.7554L15.7809 31.1877C15.1656 30.83 14.7798 30.1571 14.7819 29.4455L15.2819 29.4469C15.2826 29.199 15.3465 28.9425 15.4904 28.6967L15.9779 27.8638L15.5464 27.6113L16.5214 25.9455L16.9529 26.198L17.928 24.5322L17.4965 24.2797L18.4715 22.6139L18.903 22.8665L19.878 21.2007L19.4465 20.9481L20.4216 19.2823L20.8531 19.5349L21.8281 17.8691L21.3966 17.6165Z" stroke="#F3F5F4" stroke-dasharray="2 2"/>
<path d="M44.8125 19.3218C44.9887 20.2471 45.1086 21.1932 45.1685 22.156L44.6695 22.187C44.6982 22.6493 44.7128 23.1157 44.7128 23.5856C44.7128 24.0555 44.6982 24.5218 44.6695 24.9841L45.1685 25.0152C45.1086 25.9779 44.9887 26.924 44.8125 27.8493L44.3213 27.7558C44.1453 28.68 43.912 29.5831 43.6252 30.461L44.1005 30.6162C43.8025 31.5284 43.4482 32.4141 43.0417 33.2689L42.5901 33.0542C42.188 33.8999 41.7336 34.7146 41.2313 35.494L41.6516 35.7649C41.1336 36.5687 40.5658 37.3358 39.9527 38.0615L39.5707 37.7388C38.9685 38.4517 38.3217 39.1236 37.6346 39.75L37.9715 40.1195C37.2671 40.7618 36.5214 41.3574 35.739 41.9017L35.4534 41.4912C34.6905 42.0219 33.892 42.5025 33.0624 42.9284L33.2907 43.3732C32.4464 43.8067 31.5705 44.1849 30.6675 44.5034L30.5012 44.0319C29.63 44.3392 28.7329 44.5894 27.8142 44.7783L27.9149 45.268C26.9915 45.4579 26.0469 45.5872 25.085 45.6518L25.0515 45.1529C24.5901 45.1839 24.1246 45.1996 23.6555 45.1996C23.1863 45.1996 22.7209 45.1839 22.2595 45.1529L22.226 45.6518C21.2641 45.5872 20.3195 45.4579 19.3961 45.268L19.4968 44.7783C18.5781 44.5894 17.681 44.3392 16.8097 44.0319L16.6434 44.5034C15.7404 44.1849 14.8645 43.8067 14.0202 43.3732L14.2486 42.9284C13.419 42.5025 12.6205 42.0219 11.8575 41.4912L11.572 41.9017C10.7896 41.3574 10.0438 40.7618 9.33944 40.1195L9.67633 39.75C8.98933 39.1236 8.34246 38.4517 7.74025 37.7388L7.35831 38.0615C6.74519 37.3358 6.17736 36.5687 5.65935 35.7649L6.07964 35.494C5.57739 34.7146 5.12302 33.8999 4.72086 33.0542L4.26931 33.2689C3.86281 32.4141 3.50844 31.5284 3.21047 30.6162L3.68576 30.461C3.39901 29.5831 3.16565 28.68 2.98967 27.7558L2.4985 27.8494C2.3223 26.924 2.20235 25.9779 2.14247 25.0152L2.6415 24.9841C2.61275 24.5218 2.59814 24.0555 2.59814 23.5856C2.59814 23.1157 2.61275 22.6493 2.6415 22.187L2.14247 22.156C2.20235 21.1932 2.3223 20.2471 2.4985 19.3218L2.98967 19.4153C3.16565 18.4911 3.399 17.588 3.68575 16.7102L3.21047 16.5549C3.50844 15.6427 3.86281 14.757 4.26931 13.9022L4.72086 14.1169C5.12302 13.2712 5.57739 12.4565 6.07964 11.6771L5.65935 11.4063C6.17736 10.6024 6.74519 9.83532 7.35831 9.10959L7.74025 9.43226C8.34246 8.71944 8.98932 8.04752 9.67633 7.4211L9.33944 7.05163C10.0438 6.40934 10.7896 5.81371 11.572 5.26945L11.8575 5.67991C12.6205 5.14923 13.419 4.66865 14.2486 4.24271L14.0202 3.79791C14.8645 3.36444 15.7404 2.98617 16.6434 2.6677L16.8097 3.13923C17.681 2.83195 18.5781 2.58171 19.4968 2.39284L19.3961 1.90308C20.3195 1.71325 21.2641 1.58394 22.226 1.51934L22.2595 2.01822C22.7209 1.98724 23.1864 1.9715 23.6555 1.9715C24.1246 1.9715 24.5901 1.98724 25.0515 2.01822L25.085 1.51934C26.0469 1.58394 26.9915 1.71325 27.9149 1.90308L27.8142 2.39284C28.7329 2.58171 29.63 2.83195 30.5012 3.13923L30.6675 2.6677C31.5705 2.98617 32.4464 3.36444 33.2907 3.79791L33.0624 4.24271C33.892 4.66865 34.6905 5.14923 35.4534 5.67991L35.739 5.26945C36.5214 5.81371 37.2671 6.40934 37.9715 7.05163L37.6346 7.42109C38.3217 8.04752 38.9685 8.71944 39.5707 9.43226L39.9527 9.10959C40.5658 9.83532 41.1336 10.6024 41.6516 11.4063L41.2313 11.6771C41.7336 12.4565 42.188 13.2712 42.5901 14.1169L43.0417 13.9022C43.4482 14.757 43.8025 15.6427 44.1005 16.5549L43.6252 16.7102C43.912 17.588 44.1453 18.4911 44.3213 19.4153L44.8125 19.3218Z" stroke="#F3F5F4" stroke-dasharray="3 3"/>
<path fill-rule="evenodd" clip-rule="evenodd" d="M41.8475 35.2214C37.3736 35.1318 32.1107 33.6175 27.0245 30.6728C16.4419 24.546 10.6314 14.5475 14.0463 8.34051C15.4125 5.85713 18.0486 4.35692 21.3974 3.84307C16.2009 3.80326 11.9323 5.13835 10.3087 8.08934C6.79628 14.4737 13.7196 24.833 24.6045 31.1348C30.8042 34.7241 37.0072 35.9827 41.8475 35.2214Z" fill="#F3F5F4"/>
<path fill-rule="evenodd" clip-rule="evenodd" d="M42.8362 27.5563C42.8599 26.0778 42.5517 24.6878 41.876 23.447C38.4876 17.2248 27.1408 17.1088 16.5322 23.1881C10.2337 26.7975 5.61148 31.7793 3.60451 36.5337C4.00962 31.198 8.04534 25.3041 15.8334 20.8411C26.7451 14.5881 39.2814 13.7326 42.7666 20.1326C43.8027 22.0353 43.7094 24.6823 42.8362 27.5563Z" fill="#F3F5F4"/>
<path fill-rule="evenodd" clip-rule="evenodd" d="M7.26132 32.432C9.6842 36.5266 13.3324 39.011 16.6593 39.0155C23.1269 39.0243 28.3824 29.2996 28.3978 17.2947C28.4047 11.9328 27.365 7.0229 25.636 3.23014C28.2889 7.11727 29.8752 13.3054 29.8659 20.5386C29.85 32.8864 24.4443 42.889 17.792 42.88C12.3465 42.8727 8.47731 40.1811 7.26132 32.432Z" fill="#F3F5F4"/>
<path fill-rule="evenodd" clip-rule="evenodd" d="M42.3206 29.2627C43.11 26.602 43.0192 24.0746 41.8755 21.9744C38.4871 15.7522 27.1403 15.6362 16.5318 21.7155C10.7821 25.0104 6.42938 29.4488 4.18772 33.814C5.54523 28.8175 10.2196 23.4744 17.407 19.3556C28.3187 13.1027 39.9896 13.2219 43.4749 19.6219C44.8149 22.0826 44.1447 25.624 42.3206 29.2627Z" fill="#F3F5F4"/>
<path fill-rule="evenodd" clip-rule="evenodd" d="M39.9438 35.2215C35.4698 35.1319 30.2068 33.6176 25.1204 30.6728C14.5378 24.5461 8.7273 14.5476 12.1422 8.34054C13.4513 5.96115 15.926 4.48431 19.0764 3.91284C14.9093 4.13367 11.5853 5.49261 10.1193 8.15725C6.60687 14.5416 11.816 24.833 22.7009 31.1348C28.9005 34.7241 35.1035 35.9827 39.9438 35.2215Z" fill="#F3F5F4"/>
<path fill-rule="evenodd" clip-rule="evenodd" d="M8.73959 37.4531C11.034 39.7395 13.7524 41.0473 16.296 41.0507C23.2439 41.0601 28.8892 30.9625 28.9052 18.4971C28.9139 11.7775 27.2849 5.74146 24.693 1.60322C28.1864 5.55067 30.4945 12.3663 30.4842 20.4339C30.4677 33.2554 24.6611 43.6415 17.5147 43.6319C14.1245 43.6273 11.0418 41.284 8.73959 37.4531Z" fill="#F3F5F4"/>
</svg>
