<svg width="12" height="13" viewBox="0 0 12 13" fill="none" xmlns="http://www.w3.org/2000/svg">
<path d="M6 0.928589C2.68628 0.928589 0 3.42299 0 6.50002C0 9.57704 2.68628 12.0714 6 12.0714C9.31372 12.0714 12 9.57704 12 6.50002C12 3.42299 9.31372 0.928589 6 0.928589ZM8.83389 8.71855C8.79537 8.76049 7.87156 9.74591 6.1762 9.74591C4.1272 9.74591 2.68062 8.32475 2.68062 6.47569C2.68062 4.64918 4.18072 3.25412 6.15873 3.25412C7.77866 3.25412 8.62563 4.09242 8.66088 4.12812C8.70431 4.17208 8.73082 4.22818 8.73624 4.28763C8.74166 4.34707 8.72569 4.40651 8.69083 4.45663L8.14938 5.23517C8.05142 5.37596 7.84033 5.40031 7.70823 5.28673C7.7026 5.28192 7.0664 4.75025 6.21114 4.75025C5.09543 4.75025 4.42285 5.50453 4.42285 6.45947C4.42285 7.34914 5.04012 8.24978 6.21987 8.24978C7.15609 8.24978 7.79923 7.61316 7.80561 7.60671C7.92977 7.48169 8.14575 7.49364 8.25339 7.63037L8.84727 8.38458C8.88581 8.43353 8.90545 8.49312 8.90303 8.55372C8.9006 8.61432 8.87624 8.67239 8.83389 8.71855Z" fill="#CCCCCC"/>
</svg>
