<svg width="16" height="18" viewBox="0 0 16 18" fill="none" xmlns="http://www.w3.org/2000/svg">
<path d="M14.2857 0H1.71429C0.8 0 0 0.7875 0 1.6875V16.3125C0 17.2125 0.8 18 1.71429 18H14.2857C15.2 18 16 17.2125 16 16.3125V1.6875C16 0.7875 15.2 0 14.2857 0ZM4.57143 15.3C4.57143 15.525 4.34286 15.75 4.11429 15.75H2.74286C2.51429 15.75 2.28571 15.525 2.28571 15.3V13.95C2.28571 13.725 2.51429 13.5 2.74286 13.5H4.11429C4.34286 13.5 4.57143 13.725 4.57143 13.95V15.3ZM4.57143 10.8C4.57143 11.025 4.34286 11.25 4.11429 11.25H2.74286C2.51429 11.25 2.28571 11.025 2.28571 10.8V9.45C2.28571 9.225 2.51429 9 2.74286 9H4.11429C4.34286 9 4.57143 9.225 4.57143 9.45V10.8ZM9.14286 15.3C9.14286 15.525 8.91429 15.75 8.68571 15.75H7.31429C7.08571 15.75 6.85714 15.525 6.85714 15.3V13.95C6.85714 13.725 7.08571 13.5 7.31429 13.5H8.68571C8.91429 13.5 9.14286 13.725 9.14286 13.95V15.3ZM9.14286 10.8C9.14286 11.025 8.91429 11.25 8.68571 11.25H7.31429C7.08571 11.25 6.85714 11.025 6.85714 10.8V9.45C6.85714 9.225 7.08571 9 7.31429 9H8.68571C8.91429 9 9.14286 9.225 9.14286 9.45V10.8ZM13.7143 15.3C13.7143 15.525 13.4857 15.75 13.2571 15.75H11.8857C11.6571 15.75 11.4286 15.525 11.4286 15.3V9.45C11.4286 9.225 11.6571 9 11.8857 9H13.2571C13.4857 9 13.7143 9.225 13.7143 9.45V15.3ZM13.7143 6.3C13.7143 6.525 13.4857 6.75 13.2571 6.75H2.74286C2.51429 6.75 2.28571 6.525 2.28571 6.3V2.7C2.28571 2.475 2.51429 2.25 2.74286 2.25H13.2571C13.4857 2.25 13.7143 2.475 13.7143 2.7V6.3Z" fill="#564FCC"/>
</svg>
