<svg width="20" height="18" viewBox="0 0 20 18" fill="none" xmlns="http://www.w3.org/2000/svg">
<path d="M13.9792 2.92206L17.1111 6.09377C17.2431 6.22739 17.2431 6.4454 17.1111 6.57902L9.52778 14.2586L6.30556 14.6208C5.875 14.6701 5.51042 14.3008 5.55903 13.8648L5.91667 10.6017L13.5 2.92206C13.6319 2.78844 13.8472 2.78844 13.9792 2.92206ZM19.6042 2.11682L17.9097 0.40086C17.3819 -0.13362 16.5243 -0.13362 15.9931 0.40086L14.7639 1.64563C14.6319 1.77925 14.6319 1.99727 14.7639 2.13089L17.8958 5.3026C18.0278 5.43622 18.2431 5.43622 18.375 5.3026L19.6042 4.05782C20.1319 3.51983 20.1319 2.6513 19.6042 2.11682ZM13.3333 12.17V15.7496H2.22222V4.49736H10.2014C10.3125 4.49736 10.4167 4.45165 10.4965 4.37429L11.8854 2.96777C12.1493 2.70053 11.9618 2.24692 11.5903 2.24692H1.66667C0.746528 2.24692 0 3.00293 0 3.93475V16.3122C0 17.244 0.746528 18 1.66667 18H13.8889C14.809 18 15.5556 17.244 15.5556 16.3122V10.7634C15.5556 10.3872 15.1076 10.2008 14.8438 10.4645L13.4549 11.8711C13.3785 11.9519 13.3333 12.0574 13.3333 12.17Z" fill="#564FCC"/>
</svg>
