<svg width="18" height="19" viewBox="0 0 18 19" fill="none" xmlns="http://www.w3.org/2000/svg">
<path fill-rule="evenodd" clip-rule="evenodd" d="M18 1.8187V3.37086C18 3.56083 17.8218 3.71693 17.6039 3.71693H11.4645C11.0462 4.58873 10.1553 5.19103 9.12296 5.19103C8.09212 5.19103 7.20118 4.58873 6.78295 3.71693H0.396138C0.179661 3.71693 0 3.56083 0 3.37086V1.8187C0 1.62873 0.178189 1.47263 0.396138 1.47263H6.78295C7.20118 0.600834 8.09212 0 9.12296 0C10.1538 0 11.0448 0.602307 11.463 1.47263H17.6024C17.8218 1.47263 18 1.62873 18 1.8187ZM7.29984 16.6231C6.88162 17.4949 5.99067 18.0957 4.95836 18.0957C3.92751 18.0957 3.03657 17.4949 2.61834 16.6231H0.396138C0.178189 16.6231 0 16.467 0 16.277V14.7249C0 14.5349 0.178189 14.3788 0.396138 14.3788H2.61834C3.03657 13.507 3.92751 12.9047 4.95836 12.9047C5.9892 12.9047 6.88014 13.507 7.29837 14.3788H17.6024C17.8203 14.3788 17.9985 14.5349 17.9985 14.7249V16.277C17.9985 16.467 17.8189 16.6231 17.6024 16.6231H7.29984ZM15.3331 10.2687C14.9148 11.1405 14.0239 11.7428 12.993 11.7428C11.9622 11.7428 11.0713 11.1405 10.6516 10.2687H0.396138C0.179661 10.2687 0 10.1126 0 9.9226V8.37192C0 8.18195 0.178189 8.02585 0.396138 8.02585H10.6516C11.0698 7.15405 11.9607 6.55322 12.9916 6.55322C14.0224 6.55322 14.9134 7.15553 15.3316 8.02585H17.6024C17.8203 8.02585 17.9985 8.18195 17.9985 8.37192V9.9226C17.9985 10.1126 17.8203 10.2687 17.6024 10.2687H15.3331Z" fill="#564FCC"/>
</svg>
